<svg id="Слой_1" data-name="Слой 1" xmlns="http://www.w3.org/2000/svg" viewBox="0 0 177 354"><defs><style>.cls-1{fill:#fff;}.cls-2,.cls-3,.cls-4,.cls-5,.cls-6,.cls-7{fill:none;stroke-miterlimit:10;}.cls-2{stroke:#fff;stroke-width:8px;}.cls-3{stroke:#d4145a;}.cls-3,.cls-4,.cls-5,.cls-6,.cls-7{stroke-linecap:round;stroke-width:6px;}.cls-4{stroke:#39b54a;}.cls-5{stroke:#29abe2;}.cls-6{stroke:#fbb03b;}.cls-7{stroke:red;}</style></defs><title>itlandia_logo</title><path class="cls-1" d="M249.5,139A22.5,22.5,0,1,1,227,161.5,22.52,22.52,0,0,1,249.5,139m0-8A30.5,30.5,0,1,0,280,161.5,30.51,30.51,0,0,0,249.5,131Z" transform="translate(-161 -73)"/><path class="cls-1" d="M294.5,221a4.05,4.05,0,0,1,4,4V327a4.05,4.05,0,0,1-4,4h-90a4.05,4.05,0,0,1-4-4V225a4.05,4.05,0,0,1,4-4h90m0-8h-90a12,12,0,0,0-12,12V327a12,12,0,0,0,12,12h90a12,12,0,0,0,12-12V225a12,12,0,0,0-12-12Z" transform="translate(-161 -73)"/><line class="cls-2" x1="119" y1="140" x2="119" y2="264"/><line class="cls-2" x1="58" y1="141" x2="58" y2="265"/><path class="cls-2" d="M262.17,423H236.83c-4.52,0-8.82-5.4-9.56-12L219,337h61l-8.27,74C271,417.6,266.69,423,262.17,423Z" transform="translate(-161 -73)"/><line class="cls-3" x1="137" y1="89" x2="174" y2="89"/><line class="cls-4" x1="123.15" y1="54.56" x2="149.31" y2="28.4"/><line class="cls-5" x1="89" y1="40" x2="89" y2="3"/><line class="cls-6" x1="54.56" y1="53.85" x2="28.4" y2="27.69"/><line class="cls-7" x1="40" y1="88" x2="3" y2="88"/></svg>